<svg xmlns="http://www.w3.org/2000/svg" xmlns:xlink="http://www.w3.org/1999/xlink" xmlns:lucid="lucid" width="1483" height="1050"><g transform="translate(-121 -229)" lucid:page-tab-id="0_0"><path d="M0 0h1760v1360H0z" fill="#fff"/><path d="M731.23 340.5v64.72c0 6.63-5.37 12-12 12H552c-6.63 0-12 5.37-12 12v14.4" stroke="#333" fill="none"/><path d="M731.73 340.5h-1v-.5h1" fill="#333"/><path d="M540 458.38l-4.64-14.26h9.28z" stroke="#333" fill="#333"/><path d="M731.23 340.5v44.72c0 6.63 5.37 12 12 12h595.5c6.62 0 12 5.37 12 12v34.4" stroke="#333" fill="none"/><path d="M731.73 340.5h-1v-.5h1" fill="#333"/><path d="M1350.73 458.38l-4.64-14.26h9.26z" stroke="#333" fill="#333"/><path d="M540 520.5v105.9c0 6.63 5.37 12 12 12h71.52c6.63 0 12 5.37 12 12v10.4" stroke="#333" fill="none"/><path d="M540.5 520.5h-1v-.5h1" fill="#333"/><path d="M635.52 675.58l-4.63-14.27h9.26z" stroke="#333" fill="#333"/><path d="M582.46 288c0-4.42 3.58-8 8-8H872c4.42 0 8 3.58 8 8v44c0 4.42-3.58 8-8 8H590.46c-4.42 0-8-3.58-8-8z" stroke="#000" stroke-opacity="0" fill="#3278ca"/><use xlink:href="#a" transform="matrix(1,0,0,1,587.4589744320657,285) translate(13.722222222222229 28.5)"/><use xlink:href="#b" transform="matrix(1,0,0,1,587.4589744320657,285) translate(49.16666666666667 28.5)"/><use xlink:href="#c" transform="matrix(1,0,0,1,587.4589744320657,285) translate(121.33333333333334 28.5)"/><use xlink:href="#d" transform="matrix(1,0,0,1,587.4589744320657,285) translate(193.3888888888889 28.5)"/><path d="M635.52 740.5v138.9" stroke="#333" fill="none"/><path d="M636.02 740.5h-1v-.5h1" fill="#333"/><path d="M635.52 894.18l-4.63-14.27h9.26z" stroke="#333" fill="#333"/><path d="M635.52 960.5v123.12" stroke="#333" fill="none"/><path d="M636.02 960.5h-1v-.5h1" fill="#333"/><path d="M635.52 1098.38l-4.63-14.26h9.26z" stroke="#333" fill="#333"/><path d="M860 685.2c0-4.42 3.58-8 8-8h124c4.42 0 8 3.58 8 8V732c0 4.42-3.58 8-8 8H868c-4.42 0-8-3.58-8-8z" stroke="#000" stroke-opacity="0" fill="#4397ff"/><use xlink:href="#e" transform="matrix(1,0,0,1,864.9999999999997,682.1962426623527) translate(32.334019204389584 30.632716049382715)"/><path d="M716.02 708.6h127.6" stroke="#333" fill="none"/><path d="M716.03 709.1h-.5v-1h.5" fill="#333"/><path d="M858.38 708.6l-14.26 4.63v-9.27z" stroke="#333" fill="#333"/><path d="M1281.45 468c0-4.42 3.6-8 8-8H1412c4.42 0 8 3.58 8 8v44c0 4.42-3.58 8-8 8h-122.55c-4.4 0-8-3.58-8-8z" stroke="#000" stroke-opacity="0" fill="#4397ff"/><use xlink:href="#f" transform="matrix(1,0,0,1,1286.4541880495444,465) translate(22.250342935528124 29.882716049382715)"/><path d="M1350.73 520.5v143.12" stroke="#333" fill="none"/><path d="M1351.23 520.5h-1v-.5h1" fill="#333"/><path d="M1350.73 678.38l-4.64-14.26h9.26z" stroke="#333" fill="#333"/><path d="M1281.45 688c0-4.42 3.6-8 8-8H1412c4.42 0 8 3.58 8 8v44c0 4.42-3.58 8-8 8h-122.55c-4.4 0-8-3.58-8-8z" stroke="#000" stroke-opacity="0" fill="#4397ff"/><use xlink:href="#g" transform="matrix(1,0,0,1,1286.4541880495444,685) translate(38.60699588477367 29.882716049382715)"/><path d="M1350.73 740.5v55.4c0 6.62-5.38 12-12 12h-126c-6.63 0-12 5.37-12 12v39.5" stroke="#333" fill="none"/><path d="M1351.23 740.5h-1v-.5h1" fill="#333"/><path d="M1200.73 874.18l-4.64-14.27h9.26z" stroke="#333" fill="#333"/><path d="M1121.45 883.8c0-4.42 3.6-8 8-8H1272c4.42 0 8 3.58 8 8v44c0 4.4-3.58 8-8 8h-142.55c-4.4 0-8-3.6-8-8z" stroke="#000" stroke-opacity="0" fill="#4397ff"/><use xlink:href="#h" transform="matrix(1,0,0,1,1126.4541880495444,880.794363993529) translate(47.94307270233197 29.882716049382715)"/><path d="M1400 879.6c0-4.43 3.58-8 8-8h142.55c4.4 0 8 3.57 8 8v48.2c0 4.4-3.6 8-8 8H1408c-4.42 0-8-3.6-8-8z" stroke="#000" stroke-opacity="0" fill="#4397ff"/><use xlink:href="#i" transform="matrix(1,0,0,1,1405,876.5887279870581) translate(25.067901234567906 31.132716049382715)"/><path d="M1350.73 740.5v53.3c0 6.62 5.37 12 12 12h104.54c6.63 0 12 5.37 12 12v37.4" stroke="#333" fill="none"/><path d="M1351.23 740.5h-1v-.5h1" fill="#333"/><path d="M1479.27 869.97l-4.63-14.27h9.27z" stroke="#333" fill="#333"/><path d="M555.52 685.2c0-4.42 3.58-8 8-8h144c4.42 0 8 3.58 8 8V732c0 4.42-3.58 8-8 8h-144c-4.42 0-8-3.58-8-8z" stroke="#000" stroke-opacity="0" fill="#4397ff"/><use xlink:href="#j" transform="matrix(1,0,0,1,560.5213070194006,682.1962426623527) translate(38.22976680384089 30.632716049382715)"/><path d="M280 685.2c0-4.42 3.58-8 8-8h124c4.42 0 8 3.58 8 8V732c0 4.42-3.58 8-8 8H288c-4.42 0-8-3.58-8-8z" stroke="#000" stroke-opacity="0" fill="#4397ff"/><use xlink:href="#k" transform="matrix(1,0,0,1,285,682.1962426623527) translate(9.562414266117969 30.632716049382715)"/><path d="M540 520.5v66.1c0 6.63-5.37 12-12 12H362c-6.63 0-12 5.37-12 12v50.2" stroke="#333" fill="none"/><path d="M540.5 520.5h-1v-.5h1" fill="#333"/><path d="M350 675.58l-4.64-14.27h9.28z" stroke="#333" fill="#333"/><path d="M555.52 903.8c0-4.42 3.58-8 8-8h144c4.42 0 8 3.58 8 8V952c0 4.42-3.58 8-8 8h-144c-4.42 0-8-3.58-8-8z" stroke="#000" stroke-opacity="0" fill="#4397ff"/><use xlink:href="#l" transform="matrix(1,0,0,1,560.5213070194006,900.794363993529) translate(35.25514403292182 17.382716049382715)"/><use xlink:href="#m" transform="matrix(1,0,0,1,560.5213070194006,900.794363993529) translate(34.59122085048011 43.456790123456784)"/><path d="M555.52 1108c0-4.42 3.58-8 8-8h144c4.42 0 8 3.58 8 8v44c0 4.42-3.58 8-8 8h-144c-4.42 0-8-3.58-8-8z" stroke="#000" stroke-opacity="0" fill="#4397ff"/><use xlink:href="#n" transform="matrix(1,0,0,1,560.5213070194006,1105) translate(20.105624142661178 29.882716049382715)"/><path d="M460 468c0-4.42 3.58-8 8-8h144c4.42 0 8 3.58 8 8v44c0 4.42-3.58 8-8 8H468c-4.42 0-8-3.58-8-8z" stroke="#000" stroke-opacity="0" fill="#4397ff"/><use xlink:href="#o" transform="matrix(1,0,0,1,464.99999999999966,465) translate(32.13374485596709 29.882716049382715)"/><use xlink:href="#p" transform="matrix(1,0,0,1,464.99999999999966,465) translate(85.12688614540465 29.882716049382715)"/><path d="M555.02 927.9H246.48c-6.63 0-12 5.37-12 12v143.72" stroke="#333" fill="none"/><path d="M555.52 928.4h-.5v-1h.5" fill="#333"/><path d="M234.48 1098.38l-4.64-14.26h9.27z" stroke="#333" fill="#333"/><path d="M164.48 1108c0-4.42 3.58-8 8-8h124c4.42 0 8 3.58 8 8v44c0 4.42-3.58 8-8 8h-124c-4.42 0-8-3.58-8-8z" stroke="#000" stroke-opacity="0" fill="#4397ff"/><use xlink:href="#q" transform="matrix(1,0,0,1,169.47869298059868,1105) translate(45.1124828532236 20.507716049382715)"/><use xlink:href="#r" transform="matrix(1,0,0,1,169.47869298059868,1105) translate(19.762688614540473 46.581790123456784)"/><path d="M751.04 1108c0-4.42 3.58-8 8-8h144c4.42 0 8 3.58 8 8v44c0 4.42-3.58 8-8 8h-144c-4.42 0-8-3.58-8-8z" stroke="#000" stroke-opacity="0" fill="#4397ff"/><use xlink:href="#s" transform="matrix(1,0,0,1,756.0426140388016,1105) translate(40.023319615912214 20.507716049382715)"/><use xlink:href="#t" transform="matrix(1,0,0,1,756.0426140388016,1105) translate(30.396433470507546 46.581790123456784)"/><path d="M555.52 1208c0-4.42 3.58-8 8-8h144c4.42 0 8 3.58 8 8v28.2c0 4.42-3.58 8-8 8h-144c-4.42 0-8-3.58-8-8z" stroke="#000" stroke-opacity="0" fill="#4397ff"/><use xlink:href="#u" transform="matrix(1,0,0,1,560.5213070194006,1205) translate(46.72290809327846 21.757716049382715)"/><path d="M635.52 1160.5v23.12" stroke="#333" fill="none"/><path d="M636.02 1160.5h-1v-.5h1" fill="#333"/><path d="M635.52 1198.38l-4.63-14.26h9.26z" stroke="#333" fill="#333"/><path d="M716.02 927.9h103.02c6.63 0 12 5.37 12 12v143.72" stroke="#333" fill="none"/><path d="M716.03 928.4h-.5v-1h.5" fill="#333"/><path d="M831.04 1098.38l-4.63-14.26h9.28z" stroke="#333" fill="#333"/><path d="M360 1108c0-4.42 3.58-8 8-8h124c4.42 0 8 3.58 8 8v44c0 4.42-3.58 8-8 8H368c-4.42 0-8-3.58-8-8z" stroke="#000" stroke-opacity="0" fill="#4397ff"/><use xlink:href="#v" transform="matrix(1,0,0,1,364.99999999999966,1105) translate(15.567901234567906 29.882716049382715)"/><path d="M555.02 927.9H442c-6.63 0-12 5.37-12 12v143.72" stroke="#333" fill="none"/><path d="M555.52 928.4h-.5v-1h.5" fill="#333"/><path d="M430 1098.38l-4.64-14.26h9.28z" stroke="#333" fill="#333"/><path d="M930 740.5V798c0 6.63 5.37 12 12 12h77.45c6.63 0 12 5.37 12 12v41.62" stroke="#333" fill="none"/><path d="M930.5 740.5h-1v-.5h1" fill="#333"/><path d="M1031.45 878.38l-4.63-14.26h9.27z" stroke="#333" fill="#333"/><path d="M961.45 888c0-4.42 3.6-8 8-8h124c4.42 0 8 3.58 8 8v44c0 4.42-3.58 8-8 8h-124c-4.4 0-8-3.58-8-8z" stroke="#000" stroke-opacity="0" fill="#4397ff"/><use xlink:href="#w" transform="matrix(1,0,0,1,966.4541880495444,885) translate(54.95061728395062 20.507716049382715)"/><use xlink:href="#x" transform="matrix(1,0,0,1,966.4541880495444,885) translate(7.117969821673526 46.581790123456784)"/><path d="M930 740.5V798c0 6.63-5.37 12-12 12h-46c-6.63 0-12 5.37-12 12v41.62" stroke="#333" fill="none"/><path d="M930.5 740.5h-1v-.5h1" fill="#333"/><path d="M860 878.38l-4.64-14.26h9.28z" stroke="#333" fill="#333"/><path d="M800 888c0-4.42 3.58-8 8-8h104c4.42 0 8 3.58 8 8v44c0 4.42-3.58 8-8 8H808c-4.42 0-8-3.58-8-8z" stroke="#000" stroke-opacity="0" fill="#4397ff"/><use xlink:href="#y" transform="matrix(1,0,0,1,804.9999999999997,885) translate(1.3127572016461002 29.882716049382715)"/><use xlink:href="#z" transform="matrix(1,0,0,1,804.9999999999997,885) translate(7.348422496570653 29.882716049382715)"/><use xlink:href="#A" transform="matrix(1,0,0,1,804.9999999999997,885) translate(59.19478737997257 29.882716049382715)"/><path d="M1080 656.6c0-4.42 3.58-8 8-8h144c4.42 0 8 3.58 8 8v104c0 4.42-3.58 8-8 8h-144c-4.42 0-8-3.58-8-8z" stroke="#333" fill="#fff"/><use xlink:href="#B" transform="matrix(1,0,0,1,1085,653.5981213311763) translate(2.05898491083677 44.882716049382715)"/><use xlink:href="#C" transform="matrix(1,0,0,1,1085,653.5981213311763) translate(57.58710562414266 44.882716049382715)"/><use xlink:href="#D" transform="matrix(1,0,0,1,1085,653.5981213311763) translate(18.898491083676277 70.95679012345678)"/><use xlink:href="#E" transform="matrix(1,0,0,1,1085,653.5981213311763) translate(41.77366255144033 70.95679012345678)"/><path d="M1000.5 708.6h62.62" stroke="#333" fill="none"/><path d="M1000.5 709.1h-.5v-1h.5" fill="#333"/><path d="M1077.88 708.6l-14.26 4.63v-9.27z" stroke="#333" fill="#333"/><path d="M555.02 708.6H452c-6.63 0-12 5.37-12 12v42.52" stroke="#333" fill="none"/><path d="M555.52 709.1h-.5v-1h.5" fill="#333"/><path d="M440 777.88l-4.64-14.26h9.28z" stroke="#333" fill="#333"/><path d="M360 788c0-4.42 3.58-8 8-8h144c4.42 0 8 3.58 8 8v104c0 4.42-3.58 8-8 8H368c-4.42 0-8-3.58-8-8z" stroke="#333" fill="#fff"/><use xlink:href="#F" transform="matrix(1,0,0,1,364.99999999999966,785) translate(14.100137174211262 44.882716049382715)"/><use xlink:href="#G" transform="matrix(1,0,0,1,364.99999999999966,785) translate(90.02880658436214 44.882716049382715)"/><use xlink:href="#H" transform="matrix(1,0,0,1,364.99999999999966,785) translate(16.544581618655705 70.95679012345678)"/><use xlink:href="#I" transform="matrix(1,0,0,1,364.99999999999966,785) translate(61.08779149519891 70.95679012345678)"/><path d="M1121.45 1008c0-4.42 3.6-8 8-8h144c4.42 0 8 3.58 8 8v104c0 4.42-3.58 8-8 8h-144c-4.4 0-8-3.58-8-8z" stroke="#333" fill="#fff"/><use xlink:href="#J" transform="matrix(1,0,0,1,1126.4541880495444,1005) translate(6.8573388203018055 34.570216049382715)"/><use xlink:href="#K" transform="matrix(1,0,0,1,1126.4541880495444,1005) translate(75.54320987654322 34.570216049382715)"/><use xlink:href="#L" transform="matrix(1,0,0,1,1126.4541880495444,1005) translate(23.727023319615924 60.64429012345679)"/><use xlink:href="#M" transform="matrix(1,0,0,1,1126.4541880495444,1005) translate(90.05898491083676 60.64429012345679)"/><use xlink:href="#N" transform="matrix(1,0,0,1,1126.4541880495444,1005) translate(20.76954732510289 86.71836419753086)"/><use xlink:href="#O" transform="matrix(1,0,0,1,1126.4541880495444,1005) translate(68.99451303155007 86.71836419753086)"/><path d="M1200.73 936.3v30.98c0 .2.16.37.36.37.2 0 .35.16.35.36v15.12" stroke="#333" fill="none"/><path d="M1201.23 936.3h-1v-.5h1" fill="#333"/><path d="M1201.45 997.88l-4.63-14.26h9.27z" stroke="#333" fill="#333"/><path d="M1479.27 936.3v29.93c0 .2-.16.37-.36.37-.2 0-.35.16-.35.36V981" stroke="#333" fill="none"/><path d="M1479.77 936.3h-1v-.5h1" fill="#333"/><path d="M1478.55 995.78l-4.64-14.27h9.28z" stroke="#333" fill="#333"/><path d="M1398.55 1005.9c0-4.42 3.58-8 8-8h144c4.4 0 8 3.58 8 8v104c0 4.42-3.6 8-8 8h-144c-4.42 0-8-3.58-8-8z" stroke="#333" fill="#fff"/><g><use xlink:href="#P" transform="matrix(1,0,0,1,1403.5458119504556,1002.8971819967646) translate(52.094650205761326 44.882716049382715)"/><use xlink:href="#Q" transform="matrix(1,0,0,1,1403.5458119504556,1002.8971819967646) translate(13.556927297668047 70.95679012345678)"/></g><path d="M1031.45 940.5v42.62" stroke="#333" fill="none"/><path d="M1031.95 940.5h-1v-.5h1" fill="#333"/><path d="M1031.45 997.88l-4.63-14.26h9.27z" stroke="#333" fill="#333"/><path d="M961.45 1008c0-4.42 3.6-8 8-8h124c4.42 0 8 3.58 8 8v24c0 4.42-3.58 8-8 8h-124c-4.4 0-8-3.58-8-8z" stroke="#333" fill="#fff"/><g><use xlink:href="#R" transform="matrix(1,0,0,1,966.4541880495444,1005) translate(47.496570644718794 19.257716049382715)"/></g><path d="M700 1045.9c0-4.42 3.58-8 8-8h84c4.42 0 8 3.58 8 8v24c0 4.42-3.58 8-8 8h-84c-4.42 0-8-3.58-8-8z" stroke="#333" fill="#fff"/><g><use xlink:href="#S" transform="matrix(1,0,0,1,704.9999999999997,1042.8971819967646) translate(6.371742112482863 19.257716049382715)"/></g><path d="M716.02 927.9H738c6.63 0 12 5.37 12 12v81.1" stroke="#333" fill="none"/><path d="M716.03 928.4h-.5v-1h.5" fill="#333"/><path d="M750 1035.78l-4.64-14.27h9.28z" stroke="#333" fill="#333"/><defs><path fill="#fff" d="M6 0l48-248h52L58 0H6" id="T"/><path fill="#fff" d="M124-194c51 0 84 22 84 74C207-44 167 4 94 4 43 4 11-23 11-74c0-74 41-120 113-120zM99-30c46 0 58-42 58-86 0-27-11-44-37-44-44 0-55 40-57 84-1 27 10 45 36 46" id="U"/><path fill="#fff" d="M157-208L117 0H65l40-208H25l8-40h212l-8 40h-80" id="V"/><g id="a"><use transform="matrix(0.05555555555555555,0,0,0.05555555555555555,0,0)" xlink:href="#T"/><use transform="matrix(0.05555555555555555,0,0,0.05555555555555555,5.555555555555555,0)" xlink:href="#U"/><use transform="matrix(0.05555555555555555,0,0,0.05555555555555555,17.72222222222222,0)" xlink:href="#V"/></g><path fill="#fff" d="M178-136c88 48 22 151-73 140C49-3 12-15 4-64l51-9c1 50 111 53 115 3-16-63-132-20-133-112 0-93 190-91 199-10l-50 12c-4-41-93-50-97-4 7 38 59 32 89 48" id="W"/><path fill="#fff" d="M114-194c63-2 87 48 72 110H63c-3 28 1 55 31 54 21-1 32-13 37-29l44 13C160-14 137 4 91 4 41 4 11-22 11-73c0-71 33-119 103-121zm30 77c14-47-50-61-67-22-3 6-6 13-8 22h75" id="X"/><path fill="#fff" d="M166-52c-4 17 5 29 24 23l-3 27c-30 11-74 1-67-34C105-15 91 4 56 4 23 4 3-15 2-49c0-64 63-67 128-67 10-22 3-53-29-45-13 3-22 10-25 24l-46-5c5-64 156-77 153 0-1 33-11 60-17 90zM97-88c-44-9-64 57-19 57 31 0 42-28 47-57H97" id="Y"/><path fill="#fff" d="M84-151c13-25 34-51 72-40l-8 41C67-170 71-64 56 0H6l36-190h47" id="Z"/><path fill="#fff" d="M67-101c-8 29-7 73 27 71 23-2 32-16 39-37l48 9C170-19 141 4 91 4 36 4 7-28 12-86c6-75 61-124 140-103 26 7 40 29 43 59l-50 4c-1-20-9-34-29-34-35 0-41 29-49 59" id="aa"/><path fill="#fff" d="M150-105c8-23 8-54-22-51-68 7-54 98-72 156H6l50-261h50L85-158c15-20 33-36 66-36 95 0 34 128 28 194h-49" id="ab"/><g id="b"><use transform="matrix(0.05555555555555555,0,0,0.05555555555555555,0,0)" xlink:href="#W"/><use transform="matrix(0.05555555555555555,0,0,0.05555555555555555,13.333333333333332,0)" xlink:href="#X"/><use transform="matrix(0.05555555555555555,0,0,0.05555555555555555,24.444444444444443,0)" xlink:href="#Y"/><use transform="matrix(0.05555555555555555,0,0,0.05555555555555555,35.55555555555556,0)" xlink:href="#Z"/><use transform="matrix(0.05555555555555555,0,0,0.05555555555555555,43.333333333333336,0)" xlink:href="#aa"/><use transform="matrix(0.05555555555555555,0,0,0.05555555555555555,54.44444444444444,0)" xlink:href="#ab"/></g><path fill="#fff" d="M6 0l48-248h195l-8 40H98l-12 63h132l-7 40H79L66-40h150l-8 40H6" id="ac"/><path fill="#fff" d="M151-194c95 0 34 128 28 194h-49l25-134c0-29-45-25-59-9C67-111 69-48 56 0H6l36-190h47l-4 32c15-20 33-36 66-36" id="ad"/><path fill="#fff" d="M45-171c29-32 103-29 114 14 2-11 5-23 8-33h47L176-2c-3 70-92 96-155 64C9 56 1 42-1 25l50-5c2 28 48 27 63 11 13-13 20-45 21-66-13 20-30 35-62 36-87 3-60-134-26-172zM94-35c41-3 55-43 55-86 0-24-12-39-35-39-43 0-51 48-51 90 0 22 9 37 31 35" id="ae"/><path fill="#fff" d="M50-224l7-37h49l-7 37H50zM6 0l37-190h49L55 0H6" id="af"/><g id="c"><use transform="matrix(0.05555555555555555,0,0,0.05555555555555555,0,0)" xlink:href="#ac"/><use transform="matrix(0.05555555555555555,0,0,0.05555555555555555,13.333333333333332,0)" xlink:href="#ad"/><use transform="matrix(0.05555555555555555,0,0,0.05555555555555555,25.5,0)" xlink:href="#ae"/><use transform="matrix(0.05555555555555555,0,0,0.05555555555555555,37.666666666666664,0)" xlink:href="#af"/><use transform="matrix(0.05555555555555555,0,0,0.05555555555555555,43.22222222222222,0)" xlink:href="#ad"/><use transform="matrix(0.05555555555555555,0,0,0.05555555555555555,55.388888888888886,0)" xlink:href="#X"/></g><path fill="#fff" d="M212 0l43-212L151 0h-37L90-212C82-137 65-70 52 0H6l48-248h70l20 187 93-187h69L258 0h-46" id="ag"/><path fill="#fff" d="M132-28C118-9 101 4 69 4 30 4 10-23 10-62c0-70 24-129 92-132 31-1 47 14 56 35l19-102h49L179 0h-49zM62-69c0 22 7 39 29 39 45-2 54-45 57-90 2-27-10-40-33-40-44 0-53 48-53 91" id="ah"/><path fill="#fff" d="M69 3c-96 0-34-126-28-193h49L65-57c6 42 62 18 71-6 14-38 17-86 28-127h50L178 0h-47c0-11 4-26 3-33-14 20-30 37-65 36" id="ai"/><path fill="#fff" d="M6 0l51-261h49L55 0H6" id="aj"/><path fill="#fff" d="M144-137c-1-29-70-35-71-2 16 41 103 10 103 80C176 9 79 16 32-9 18-17 9-31 4-48l44-6c3 32 80 36 82 1-15-42-103-11-103-82 0-77 157-79 161-8" id="ak"/><g id="d"><use transform="matrix(0.05555555555555555,0,0,0.05555555555555555,0,0)" xlink:href="#ag"/><use transform="matrix(0.05555555555555555,0,0,0.05555555555555555,16.61111111111111,0)" xlink:href="#U"/><use transform="matrix(0.05555555555555555,0,0,0.05555555555555555,28.777777777777775,0)" xlink:href="#ah"/><use transform="matrix(0.05555555555555555,0,0,0.05555555555555555,40.94444444444444,0)" xlink:href="#ai"/><use transform="matrix(0.05555555555555555,0,0,0.05555555555555555,53.11111111111111,0)" xlink:href="#aj"/><use transform="matrix(0.05555555555555555,0,0,0.05555555555555555,58.666666666666664,0)" xlink:href="#X"/><use transform="matrix(0.05555555555555555,0,0,0.05555555555555555,69.77777777777777,0)" xlink:href="#ak"/></g><path fill="#333" d="M240 0l2-218c-23 76-54 145-80 218h-23L58-218 59 0H30v-248h44l77 211c21-75 51-140 76-211h43V0h-30" id="al"/><path fill="#333" d="M100-194c62-1 85 37 85 99 1 63-27 99-86 99S16-35 15-95c0-66 28-99 85-99zM99-20c44 1 53-31 53-75 0-43-8-75-51-75s-53 32-53 75 10 74 51 75" id="am"/><path fill="#333" d="M117-194c89-4 53 116 60 194h-32v-121c0-31-8-49-39-48C34-167 62-67 57 0H25l-1-190h30c1 10-1 24 2 32 11-22 29-35 61-36" id="an"/><path fill="#333" d="M177-190C167-65 218 103 67 71c-23-6-38-20-44-43l32-5c15 47 100 32 89-28v-30C133-14 115 1 83 1 29 1 15-40 15-95c0-56 16-97 71-98 29-1 48 16 59 35 1-10 0-23 2-32h30zM94-22c36 0 50-32 50-73 0-42-14-75-50-75-39 0-46 34-46 75s6 73 46 73" id="ao"/><g id="e"><use transform="matrix(0.06035665294924553,0,0,0.06035665294924553,0,0)" xlink:href="#al"/><use transform="matrix(0.06035665294924553,0,0,0.06035665294924553,18.046639231824415,0)" xlink:href="#am"/><use transform="matrix(0.06035665294924553,0,0,0.06035665294924553,30.11796982167352,0)" xlink:href="#an"/><use transform="matrix(0.06035665294924553,0,0,0.06035665294924553,42.18930041152262,0)" xlink:href="#ao"/><use transform="matrix(0.06035665294924553,0,0,0.06035665294924553,54.26063100137173,0)" xlink:href="#am"/></g><path fill="#333" d="M160-131c35 5 61 23 61 61C221 17 115-2 30 0v-248c76 3 177-17 177 60 0 33-19 50-47 57zm-97-11c50-1 110 9 110-42 0-47-63-36-110-37v79zm0 115c55-2 124 14 124-45 0-56-70-42-124-44v89" id="ap"/><path fill="#333" d="M141-36C126-15 110 5 73 4 37 3 15-17 15-53c-1-64 63-63 125-63 3-35-9-54-41-54-24 1-41 7-42 31l-33-3c5-37 33-52 76-52 45 0 72 20 72 64v82c-1 20 7 32 28 27v20c-31 9-61-2-59-35zM48-53c0 20 12 33 32 33 41-3 63-29 60-74-43 2-92-5-92 41" id="aq"/><path fill="#333" d="M96-169c-40 0-48 33-48 73s9 75 48 75c24 0 41-14 43-38l32 2c-6 37-31 61-74 61-59 0-76-41-82-99-10-93 101-131 147-64 4 7 5 14 7 22l-32 3c-4-21-16-35-41-35" id="ar"/><path fill="#333" d="M143 0L79-87 56-68V0H24v-261h32v163l83-92h37l-77 82L181 0h-38" id="as"/><path fill="#333" d="M100-194c63 0 86 42 84 106H49c0 40 14 67 53 68 26 1 43-12 49-29l28 8c-11 28-37 45-77 45C44 4 14-33 15-96c1-61 26-98 85-98zm52 81c6-60-76-77-97-28-3 7-6 17-6 28h103" id="at"/><path fill="#333" d="M85-194c31 0 48 13 60 33l-1-100h32l1 261h-30c-2-10 0-23-3-31C134-8 116 4 85 4 32 4 16-35 15-94c0-66 23-100 70-100zm9 24c-40 0-46 34-46 75 0 40 6 74 45 74 42 0 51-32 51-76 0-42-9-74-50-73" id="au"/><g id="f"><use transform="matrix(0.06035665294924553,0,0,0.06035665294924553,0,0)" xlink:href="#ap"/><use transform="matrix(0.06035665294924553,0,0,0.06035665294924553,14.485596707818928,0)" xlink:href="#aq"/><use transform="matrix(0.06035665294924553,0,0,0.06035665294924553,26.556927297668032,0)" xlink:href="#ar"/><use transform="matrix(0.06035665294924553,0,0,0.06035665294924553,37.42112482853223,0)" xlink:href="#as"/><use transform="matrix(0.06035665294924553,0,0,0.06035665294924553,48.285322359396424,0)" xlink:href="#at"/><use transform="matrix(0.06035665294924553,0,0,0.06035665294924553,60.35665294924553,0)" xlink:href="#an"/><use transform="matrix(0.06035665294924553,0,0,0.06035665294924553,72.42798353909464,0)" xlink:href="#au"/></g><path fill="#333" d="M63-220v92h138v28H63V0H30v-248h175v28H63" id="av"/><path fill="#333" d="M24 0v-261h32V0H24" id="aw"/><path fill="#333" d="M135-143c-3-34-86-38-87 0 15 53 115 12 119 90S17 21 10-45l28-5c4 36 97 45 98 0-10-56-113-15-118-90-4-57 82-63 122-42 12 7 21 19 24 35" id="ax"/><g id="g"><use transform="matrix(0.06035665294924553,0,0,0.06035665294924553,0,0)" xlink:href="#av"/><use transform="matrix(0.06035665294924553,0,0,0.06035665294924553,13.218106995884773,0)" xlink:href="#aw"/><use transform="matrix(0.06035665294924553,0,0,0.06035665294924553,17.98628257887517,0)" xlink:href="#aq"/><use transform="matrix(0.06035665294924553,0,0,0.06035665294924553,30.057613168724274,0)" xlink:href="#ax"/><use transform="matrix(0.06035665294924553,0,0,0.06035665294924553,40.92181069958847,0)" xlink:href="#as"/></g><path fill="#333" d="M33 0v-248h34V0H33" id="ay"/><path fill="#333" d="M141 0L90-78 38 0H4l68-98-65-92h35l48 74 47-74h35l-64 92 68 98h-35" id="az"/><g id="h"><use transform="matrix(0.06035665294924553,0,0,0.06035665294924553,0,0)" xlink:href="#ay"/><use transform="matrix(0.06035665294924553,0,0,0.06035665294924553,6.035665294924553,0)" xlink:href="#an"/><use transform="matrix(0.06035665294924553,0,0,0.06035665294924553,18.10699588477366,0)" xlink:href="#au"/><use transform="matrix(0.06035665294924553,0,0,0.06035665294924553,30.178326474622764,0)" xlink:href="#at"/><use transform="matrix(0.06035665294924553,0,0,0.06035665294924553,42.24965706447187,0)" xlink:href="#az"/></g><path fill="#333" d="M30-248c118-7 216 8 213 122C240-48 200 0 122 0H30v-248zM63-27c89 8 146-16 146-99s-60-101-146-95v194" id="aA"/><path fill="#333" d="M84 4C-5 8 30-112 23-190h32v120c0 31 7 50 39 49 72-2 45-101 50-169h31l1 190h-30c-1-10 1-25-2-33-11 22-28 36-60 37" id="aB"/><path fill="#333" d="M210-169c-67 3-38 105-44 169h-31v-121c0-29-5-50-35-48C34-165 62-65 56 0H25l-1-190h30c1 10-1 24 2 32 10-44 99-50 107 0 11-21 27-35 58-36 85-2 47 119 55 194h-31v-121c0-29-5-49-35-48" id="aC"/><path fill="#333" d="M59-47c-2 24 18 29 38 22v24C64 9 27 4 27-40v-127H5v-23h24l9-43h21v43h35v23H59v120" id="aD"/><g id="i"><use transform="matrix(0.06035665294924553,0,0,0.06035665294924553,0,0)" xlink:href="#aA"/><use transform="matrix(0.06035665294924553,0,0,0.06035665294924553,15.632373113854593,0)" xlink:href="#am"/><use transform="matrix(0.06035665294924553,0,0,0.06035665294924553,27.7037037037037,0)" xlink:href="#ar"/><use transform="matrix(0.06035665294924553,0,0,0.06035665294924553,38.5679012345679,0)" xlink:href="#aB"/><use transform="matrix(0.06035665294924553,0,0,0.06035665294924553,50.639231824417,0)" xlink:href="#aC"/><use transform="matrix(0.06035665294924553,0,0,0.06035665294924553,68.68587105624141,0)" xlink:href="#at"/><use transform="matrix(0.06035665294924553,0,0,0.06035665294924553,80.75720164609052,0)" xlink:href="#an"/><use transform="matrix(0.06035665294924553,0,0,0.06035665294924553,92.82853223593963,0)" xlink:href="#aD"/></g><path fill="#333" d="M212-179c-10-28-35-45-73-45-59 0-87 40-87 99 0 60 29 101 89 101 43 0 62-24 78-52l27 14C228-24 195 4 139 4 59 4 22-46 18-125c-6-104 99-153 187-111 19 9 31 26 39 46" id="aE"/><path fill="#333" d="M114-163C36-179 61-72 57 0H25l-1-190h30c1 12-1 29 2 39 6-27 23-49 58-41v29" id="aF"/><path fill="#333" d="M206 0h-36l-40-164L89 0H53L-1-190h32L70-26l43-164h34l41 164 42-164h31" id="aG"/><g id="j"><use transform="matrix(0.06035665294924553,0,0,0.06035665294924553,0,0)" xlink:href="#aE"/><use transform="matrix(0.06035665294924553,0,0,0.06035665294924553,15.632373113854593,0)" xlink:href="#aF"/><use transform="matrix(0.06035665294924553,0,0,0.06035665294924553,22.81481481481481,0)" xlink:href="#aq"/><use transform="matrix(0.06035665294924553,0,0,0.06035665294924553,34.886145404663914,0)" xlink:href="#aG"/><use transform="matrix(0.06035665294924553,0,0,0.06035665294924553,50.518518518518505,0)" xlink:href="#aw"/><use transform="matrix(0.06035665294924553,0,0,0.06035665294924553,55.2866941015089,0)" xlink:href="#at"/><use transform="matrix(0.06035665294924553,0,0,0.06035665294924553,67.35802469135801,0)" xlink:href="#aF"/></g><g id="k"><use transform="matrix(0.06035665294924553,0,0,0.06035665294924553,0,0)" xlink:href="#aE"/><use transform="matrix(0.06035665294924553,0,0,0.06035665294924553,15.632373113854593,0)" xlink:href="#am"/><use transform="matrix(0.06035665294924553,0,0,0.06035665294924553,27.7037037037037,0)" xlink:href="#aC"/><use transform="matrix(0.06035665294924553,0,0,0.06035665294924553,45.75034293552811,0)" xlink:href="#aC"/><use transform="matrix(0.06035665294924553,0,0,0.06035665294924553,63.79698216735253,0)" xlink:href="#aq"/><use transform="matrix(0.06035665294924553,0,0,0.06035665294924553,75.86831275720164,0)" xlink:href="#an"/><use transform="matrix(0.06035665294924553,0,0,0.06035665294924553,87.93964334705075,0)" xlink:href="#au"/><use transform="matrix(0.06035665294924553,0,0,0.06035665294924553,100.01097393689986,0)" xlink:href="#ax"/></g><path fill="#333" d="M190 0L58-211 59 0H30v-248h39L202-35l-2-213h31V0h-41" id="aH"/><g id="l"><use transform="matrix(0.06035665294924553,0,0,0.06035665294924553,0,0)" xlink:href="#aH"/><use transform="matrix(0.06035665294924553,0,0,0.06035665294924553,15.632373113854593,0)" xlink:href="#at"/><use transform="matrix(0.06035665294924553,0,0,0.06035665294924553,27.7037037037037,0)" xlink:href="#aD"/><use transform="matrix(0.06035665294924553,0,0,0.06035665294924553,33.73936899862825,0)" xlink:href="#aG"/><use transform="matrix(0.06035665294924553,0,0,0.06035665294924553,49.37174211248284,0)" xlink:href="#am"/><use transform="matrix(0.06035665294924553,0,0,0.06035665294924553,61.443072702331946,0)" xlink:href="#aF"/><use transform="matrix(0.06035665294924553,0,0,0.06035665294924553,68.62551440329216,0)" xlink:href="#as"/></g><path fill="#333" d="M185-189c-5-48-123-54-124 2 14 75 158 14 163 119 3 78-121 87-175 55-17-10-28-26-33-46l33-7c5 56 141 63 141-1 0-78-155-14-162-118-5-82 145-84 179-34 5 7 8 16 11 25" id="aI"/><g id="m"><use transform="matrix(0.06035665294924553,0,0,0.06035665294924553,0,0)" xlink:href="#aI"/><use transform="matrix(0.06035665294924553,0,0,0.06035665294924553,14.485596707818928,0)" xlink:href="#ar"/><use transform="matrix(0.06035665294924553,0,0,0.06035665294924553,25.349794238683124,0)" xlink:href="#aq"/><use transform="matrix(0.06035665294924553,0,0,0.06035665294924553,37.42112482853223,0)" xlink:href="#an"/><use transform="matrix(0.06035665294924553,0,0,0.06035665294924553,49.49245541838133,0)" xlink:href="#an"/><use transform="matrix(0.06035665294924553,0,0,0.06035665294924553,61.56378600823044,0)" xlink:href="#at"/><use transform="matrix(0.06035665294924553,0,0,0.06035665294924553,73.63511659807955,0)" xlink:href="#aF"/></g><path fill="#333" d="M106-169C34-169 62-67 57 0H25v-261h32l-1 103c12-21 28-36 61-36 89 0 53 116 60 194h-32v-121c2-32-8-49-39-48" id="aJ"/><g id="n"><use transform="matrix(0.06035665294924553,0,0,0.06035665294924553,0,0)" xlink:href="#aI"/><use transform="matrix(0.06035665294924553,0,0,0.06035665294924553,14.485596707818928,0)" xlink:href="#ar"/><use transform="matrix(0.06035665294924553,0,0,0.06035665294924553,25.349794238683124,0)" xlink:href="#aF"/><use transform="matrix(0.06035665294924553,0,0,0.06035665294924553,32.53223593964334,0)" xlink:href="#at"/><use transform="matrix(0.06035665294924553,0,0,0.06035665294924553,44.60356652949245,0)" xlink:href="#at"/><use transform="matrix(0.06035665294924553,0,0,0.06035665294924553,56.67489711934155,0)" xlink:href="#an"/><use transform="matrix(0.06035665294924553,0,0,0.06035665294924553,68.74622770919066,0)" xlink:href="#ax"/><use transform="matrix(0.06035665294924553,0,0,0.06035665294924553,79.61042524005487,0)" xlink:href="#aJ"/><use transform="matrix(0.06035665294924553,0,0,0.06035665294924553,91.68175582990398,0)" xlink:href="#am"/><use transform="matrix(0.06035665294924553,0,0,0.06035665294924553,103.75308641975309,0)" xlink:href="#aD"/></g><path fill="#333" d="M24-231v-30h32v30H24zM24 0v-190h32V0H24" id="aK"/><g id="o"><use transform="matrix(0.06035665294924553,0,0,0.06035665294924553,0,0)" xlink:href="#al"/><use transform="matrix(0.06035665294924553,0,0,0.06035665294924553,18.046639231824415,0)" xlink:href="#aq"/><use transform="matrix(0.06035665294924553,0,0,0.06035665294924553,30.11796982167352,0)" xlink:href="#aK"/><use transform="matrix(0.06035665294924553,0,0,0.06035665294924553,34.886145404663914,0)" xlink:href="#an"/></g><path fill="#333" d="M30 0v-248h33v221h125V0H30" id="aL"/><g id="p"><use transform="matrix(0.06035665294924553,0,0,0.06035665294924553,0,0)" xlink:href="#aE"/><use transform="matrix(0.06035665294924553,0,0,0.06035665294924553,15.632373113854593,0)" xlink:href="#aL"/><use transform="matrix(0.06035665294924553,0,0,0.06035665294924553,27.7037037037037,0)" xlink:href="#ay"/></g><path fill="#333" d="M30-248c87 1 191-15 191 75 0 78-77 80-158 76V0H30v-248zm33 125c57 0 124 11 124-50 0-59-68-47-124-48v98" id="aM"/><g id="q"><use transform="matrix(0.06035665294924553,0,0,0.06035665294924553,0,0)" xlink:href="#aM"/><use transform="matrix(0.06035665294924553,0,0,0.06035665294924553,14.485596707818928,0)" xlink:href="#am"/><use transform="matrix(0.06035665294924553,0,0,0.06035665294924553,26.556927297668032,0)" xlink:href="#aF"/><use transform="matrix(0.06035665294924553,0,0,0.06035665294924553,33.73936899862825,0)" xlink:href="#aD"/></g><g id="r"><use transform="matrix(0.06035665294924553,0,0,0.06035665294924553,0,0)" xlink:href="#aI"/><use transform="matrix(0.06035665294924553,0,0,0.06035665294924553,14.485596707818928,0)" xlink:href="#ar"/><use transform="matrix(0.06035665294924553,0,0,0.06035665294924553,25.349794238683124,0)" xlink:href="#aq"/><use transform="matrix(0.06035665294924553,0,0,0.06035665294924553,37.42112482853223,0)" xlink:href="#an"/><use transform="matrix(0.06035665294924553,0,0,0.06035665294924553,49.49245541838133,0)" xlink:href="#an"/><use transform="matrix(0.06035665294924553,0,0,0.06035665294924553,61.56378600823044,0)" xlink:href="#aK"/><use transform="matrix(0.06035665294924553,0,0,0.06035665294924553,66.33196159122083,0)" xlink:href="#an"/><use transform="matrix(0.06035665294924553,0,0,0.06035665294924553,78.40329218106994,0)" xlink:href="#ao"/></g><g id="s"><use transform="matrix(0.06035665294924553,0,0,0.06035665294924553,0,0)" xlink:href="#ap"/><use transform="matrix(0.06035665294924553,0,0,0.06035665294924553,14.485596707818928,0)" xlink:href="#aq"/><use transform="matrix(0.06035665294924553,0,0,0.06035665294924553,26.556927297668032,0)" xlink:href="#an"/><use transform="matrix(0.06035665294924553,0,0,0.06035665294924553,38.62825788751714,0)" xlink:href="#an"/><use transform="matrix(0.06035665294924553,0,0,0.06035665294924553,50.69958847736624,0)" xlink:href="#at"/><use transform="matrix(0.06035665294924553,0,0,0.06035665294924553,62.77091906721534,0)" xlink:href="#aF"/></g><path fill="#333" d="M143 4C61 4 22-44 18-125c-5-107 100-154 193-111 17 8 29 25 37 43l-32 9c-13-25-37-40-76-40-61 0-88 39-88 99 0 61 29 100 91 101 35 0 62-11 79-27v-45h-74v-28h105v86C228-13 192 4 143 4" id="aN"/><path fill="#333" d="M115-194c53 0 69 39 70 98 0 66-23 100-70 100C84 3 66-7 56-30L54 0H23l1-261h32v101c10-23 28-34 59-34zm-8 174c40 0 45-34 45-75 0-40-5-75-45-74-42 0-51 32-51 76 0 43 10 73 51 73" id="aO"/><g id="t"><use transform="matrix(0.06035665294924553,0,0,0.06035665294924553,0,0)" xlink:href="#aN"/><use transform="matrix(0.06035665294924553,0,0,0.06035665294924553,16.899862825788748,0)" xlink:href="#aF"/><use transform="matrix(0.06035665294924553,0,0,0.06035665294924553,24.082304526748967,0)" xlink:href="#aq"/><use transform="matrix(0.06035665294924553,0,0,0.06035665294924553,36.153635116598075,0)" xlink:href="#aO"/><use transform="matrix(0.06035665294924553,0,0,0.06035665294924553,48.22496570644718,0)" xlink:href="#aO"/><use transform="matrix(0.06035665294924553,0,0,0.06035665294924553,60.29629629629628,0)" xlink:href="#aK"/><use transform="matrix(0.06035665294924553,0,0,0.06035665294924553,65.06447187928669,0)" xlink:href="#an"/><use transform="matrix(0.06035665294924553,0,0,0.06035665294924553,77.1358024691358,0)" xlink:href="#ao"/></g><path fill="#333" d="M197 0v-115H63V0H30v-248h33v105h134v-105h34V0h-34" id="aP"/><path fill="#333" d="M127-220V0H93v-220H8v-28h204v28h-85" id="aQ"/><g id="u"><use transform="matrix(0.06035665294924553,0,0,0.06035665294924553,0,0)" xlink:href="#aP"/><use transform="matrix(0.06035665294924553,0,0,0.06035665294924553,15.632373113854593,0)" xlink:href="#aQ"/><use transform="matrix(0.06035665294924553,0,0,0.06035665294924553,28.850480109739365,0)" xlink:href="#aQ"/><use transform="matrix(0.06035665294924553,0,0,0.06035665294924553,42.06858710562414,0)" xlink:href="#aM"/></g><g id="v"><use transform="matrix(0.06035665294924553,0,0,0.06035665294924553,0,0)" xlink:href="#aP"/><use transform="matrix(0.06035665294924553,0,0,0.06035665294924553,15.632373113854593,0)" xlink:href="#am"/><use transform="matrix(0.06035665294924553,0,0,0.06035665294924553,27.7037037037037,0)" xlink:href="#ax"/><use transform="matrix(0.06035665294924553,0,0,0.06035665294924553,38.5679012345679,0)" xlink:href="#aD"/><use transform="matrix(0.06035665294924553,0,0,0.06035665294924553,44.603566529492454,0)" xlink:href="#an"/><use transform="matrix(0.06035665294924553,0,0,0.06035665294924553,56.67489711934156,0)" xlink:href="#aq"/><use transform="matrix(0.06035665294924553,0,0,0.06035665294924553,68.74622770919066,0)" xlink:href="#aC"/><use transform="matrix(0.06035665294924553,0,0,0.06035665294924553,86.79286694101508,0)" xlink:href="#at"/></g><g id="w"><use transform="matrix(0.06035665294924553,0,0,0.06035665294924553,0,0)" xlink:href="#ay"/><use transform="matrix(0.06035665294924553,0,0,0.06035665294924553,6.035665294924553,0)" xlink:href="#aM"/></g><g id="x"><use transform="matrix(0.06035665294924553,0,0,0.06035665294924553,0,0)" xlink:href="#aN"/><use transform="matrix(0.06035665294924553,0,0,0.06035665294924553,16.899862825788748,0)" xlink:href="#at"/><use transform="matrix(0.06035665294924553,0,0,0.06035665294924553,28.971193415637856,0)" xlink:href="#am"/><use transform="matrix(0.06035665294924553,0,0,0.06035665294924553,41.04252400548696,0)" xlink:href="#aw"/><use transform="matrix(0.06035665294924553,0,0,0.06035665294924553,45.810699588477355,0)" xlink:href="#am"/><use transform="matrix(0.06035665294924553,0,0,0.06035665294924553,57.88203017832646,0)" xlink:href="#ar"/><use transform="matrix(0.06035665294924553,0,0,0.06035665294924553,68.74622770919066,0)" xlink:href="#aq"/><use transform="matrix(0.06035665294924553,0,0,0.06035665294924553,80.81755829903977,0)" xlink:href="#aD"/><use transform="matrix(0.06035665294924553,0,0,0.06035665294924553,86.85322359396433,0)" xlink:href="#aK"/><use transform="matrix(0.06035665294924553,0,0,0.06035665294924553,91.62139917695472,0)" xlink:href="#am"/><use transform="matrix(0.06035665294924553,0,0,0.06035665294924553,103.69272976680384,0)" xlink:href="#an"/></g><g id="z"><use transform="matrix(0.06035665294924553,0,0,0.06035665294924553,0,0)" xlink:href="#aA"/><use transform="matrix(0.06035665294924553,0,0,0.06035665294924553,15.632373113854593,0)" xlink:href="#aq"/><use transform="matrix(0.06035665294924553,0,0,0.06035665294924553,27.7037037037037,0)" xlink:href="#aD"/><use transform="matrix(0.06035665294924553,0,0,0.06035665294924553,33.73936899862825,0)" xlink:href="#at"/></g><g id="A"><use transform="matrix(0.06035665294924553,0,0,0.06035665294924553,0,0)" xlink:href="#aI"/><use transform="matrix(0.06035665294924553,0,0,0.06035665294924553,14.485596707818928,0)" xlink:href="#ar"/><use transform="matrix(0.06035665294924553,0,0,0.06035665294924553,25.349794238683124,0)" xlink:href="#aq"/><use transform="matrix(0.06035665294924553,0,0,0.06035665294924553,37.42112482853223,0)" xlink:href="#an"/></g><path fill="#333" d="M108 0H70L1-190h34L89-25l56-165h34" id="aR"/><g id="B"><use transform="matrix(0.06035665294924553,0,0,0.06035665294924553,0,0)" xlink:href="#aI"/><use transform="matrix(0.06035665294924553,0,0,0.06035665294924553,14.485596707818928,0)" xlink:href="#aq"/><use transform="matrix(0.06035665294924553,0,0,0.06035665294924553,26.556927297668032,0)" xlink:href="#aR"/><use transform="matrix(0.06035665294924553,0,0,0.06035665294924553,37.42112482853223,0)" xlink:href="#at"/></g><g id="C"><use transform="matrix(0.06035665294924553,0,0,0.06035665294924553,0,0)" xlink:href="#ar"/><use transform="matrix(0.06035665294924553,0,0,0.06035665294924553,10.864197530864196,0)" xlink:href="#am"/><use transform="matrix(0.06035665294924553,0,0,0.06035665294924553,22.9355281207133,0)" xlink:href="#aw"/><use transform="matrix(0.06035665294924553,0,0,0.06035665294924553,27.703703703703695,0)" xlink:href="#aw"/><use transform="matrix(0.06035665294924553,0,0,0.06035665294924553,32.47187928669409,0)" xlink:href="#at"/><use transform="matrix(0.06035665294924553,0,0,0.06035665294924553,44.543209876543195,0)" xlink:href="#ar"/><use transform="matrix(0.06035665294924553,0,0,0.06035665294924553,55.40740740740739,0)" xlink:href="#aD"/><use transform="matrix(0.06035665294924553,0,0,0.06035665294924553,61.443072702331946,0)" xlink:href="#aK"/><use transform="matrix(0.06035665294924553,0,0,0.06035665294924553,66.21124828532234,0)" xlink:href="#am"/><use transform="matrix(0.06035665294924553,0,0,0.06035665294924553,78.28257887517145,0)" xlink:href="#an"/></g><g id="D"><use transform="matrix(0.06035665294924553,0,0,0.06035665294924553,0,0)" xlink:href="#aK"/><use transform="matrix(0.06035665294924553,0,0,0.06035665294924553,4.768175582990397,0)" xlink:href="#an"/></g><g id="E"><use transform="matrix(0.06035665294924553,0,0,0.06035665294924553,0,0)" xlink:href="#au"/><use transform="matrix(0.06035665294924553,0,0,0.06035665294924553,12.071330589849106,0)" xlink:href="#aq"/><use transform="matrix(0.06035665294924553,0,0,0.06035665294924553,24.142661179698212,0)" xlink:href="#aD"/><use transform="matrix(0.06035665294924553,0,0,0.06035665294924553,30.178326474622764,0)" xlink:href="#aq"/><use transform="matrix(0.06035665294924553,0,0,0.06035665294924553,42.24965706447187,0)" xlink:href="#aO"/><use transform="matrix(0.06035665294924553,0,0,0.06035665294924553,54.32098765432097,0)" xlink:href="#aq"/><use transform="matrix(0.06035665294924553,0,0,0.06035665294924553,66.39231824417008,0)" xlink:href="#ax"/><use transform="matrix(0.06035665294924553,0,0,0.06035665294924553,77.25651577503427,0)" xlink:href="#at"/></g><path fill="#333" d="M101-234c-31-9-42 10-38 44h38v23H63V0H32v-167H5v-23h27c-7-52 17-82 69-68v24" id="aS"/><g id="F"><use transform="matrix(0.06035665294924553,0,0,0.06035665294924553,0,0)" xlink:href="#aM"/><use transform="matrix(0.06035665294924553,0,0,0.06035665294924553,14.485596707818928,0)" xlink:href="#at"/><use transform="matrix(0.06035665294924553,0,0,0.06035665294924553,26.556927297668032,0)" xlink:href="#aF"/><use transform="matrix(0.06035665294924553,0,0,0.06035665294924553,33.73936899862825,0)" xlink:href="#aS"/><use transform="matrix(0.06035665294924553,0,0,0.06035665294924553,39.77503429355281,0)" xlink:href="#am"/><use transform="matrix(0.06035665294924553,0,0,0.06035665294924553,51.84636488340191,0)" xlink:href="#aC"/></g><g id="G"><use transform="matrix(0.06035665294924553,0,0,0.06035665294924553,0,0)" xlink:href="#ax"/><use transform="matrix(0.06035665294924553,0,0,0.06035665294924553,10.864197530864196,0)" xlink:href="#ar"/><use transform="matrix(0.06035665294924553,0,0,0.06035665294924553,21.728395061728392,0)" xlink:href="#aq"/><use transform="matrix(0.06035665294924553,0,0,0.06035665294924553,33.799725651577496,0)" xlink:href="#an"/></g><g id="H"><use transform="matrix(0.06035665294924553,0,0,0.06035665294924553,0,0)" xlink:href="#aG"/><use transform="matrix(0.06035665294924553,0,0,0.06035665294924553,15.632373113854593,0)" xlink:href="#aK"/><use transform="matrix(0.06035665294924553,0,0,0.06035665294924553,20.40054869684499,0)" xlink:href="#aD"/><use transform="matrix(0.06035665294924553,0,0,0.06035665294924553,26.43621399176954,0)" xlink:href="#aJ"/></g><g id="I"><use transform="matrix(0.06035665294924553,0,0,0.06035665294924553,0,0)" xlink:href="#aD"/><use transform="matrix(0.06035665294924553,0,0,0.06035665294924553,6.035665294924553,0)" xlink:href="#aJ"/><use transform="matrix(0.06035665294924553,0,0,0.06035665294924553,18.10699588477366,0)" xlink:href="#aF"/><use transform="matrix(0.06035665294924553,0,0,0.06035665294924553,25.28943758573388,0)" xlink:href="#at"/><use transform="matrix(0.06035665294924553,0,0,0.06035665294924553,37.36076817558298,0)" xlink:href="#aq"/><use transform="matrix(0.06035665294924553,0,0,0.06035665294924553,49.43209876543209,0)" xlink:href="#au"/><use transform="matrix(0.06035665294924553,0,0,0.06035665294924553,61.50342935528119,0)" xlink:href="#ax"/></g><g id="J"><use transform="matrix(0.06035665294924553,0,0,0.06035665294924553,0,0)" xlink:href="#aA"/><use transform="matrix(0.06035665294924553,0,0,0.06035665294924553,15.632373113854593,0)" xlink:href="#at"/><use transform="matrix(0.06035665294924553,0,0,0.06035665294924553,27.7037037037037,0)" xlink:href="#aS"/><use transform="matrix(0.06035665294924553,0,0,0.06035665294924553,33.73936899862825,0)" xlink:href="#aK"/><use transform="matrix(0.06035665294924553,0,0,0.06035665294924553,38.507544581618646,0)" xlink:href="#an"/><use transform="matrix(0.06035665294924553,0,0,0.06035665294924553,50.57887517146775,0)" xlink:href="#at"/></g><g id="K"><use transform="matrix(0.06035665294924553,0,0,0.06035665294924553,0,0)" xlink:href="#aq"/><use transform="matrix(0.06035665294924553,0,0,0.06035665294924553,12.071330589849106,0)" xlink:href="#ar"/><use transform="matrix(0.06035665294924553,0,0,0.06035665294924553,22.9355281207133,0)" xlink:href="#ar"/><use transform="matrix(0.06035665294924553,0,0,0.06035665294924553,33.799725651577496,0)" xlink:href="#at"/><use transform="matrix(0.06035665294924553,0,0,0.06035665294924553,45.8710562414266,0)" xlink:href="#ax"/><use transform="matrix(0.06035665294924553,0,0,0.06035665294924553,56.7352537722908,0)" xlink:href="#ax"/></g><g id="L"><use transform="matrix(0.06035665294924553,0,0,0.06035665294924553,0,0)" xlink:href="#aF"/><use transform="matrix(0.06035665294924553,0,0,0.06035665294924553,7.182441700960219,0)" xlink:href="#am"/><use transform="matrix(0.06035665294924553,0,0,0.06035665294924553,19.253772290809323,0)" xlink:href="#aB"/><use transform="matrix(0.06035665294924553,0,0,0.06035665294924553,31.325102880658424,0)" xlink:href="#aD"/><use transform="matrix(0.06035665294924553,0,0,0.06035665294924553,37.36076817558298,0)" xlink:href="#at"/><use transform="matrix(0.06035665294924553,0,0,0.06035665294924553,49.43209876543209,0)" xlink:href="#ax"/></g><g id="M"><use transform="matrix(0.06035665294924553,0,0,0.06035665294924553,0,0)" xlink:href="#aq"/><use transform="matrix(0.06035665294924553,0,0,0.06035665294924553,12.071330589849106,0)" xlink:href="#an"/><use transform="matrix(0.06035665294924553,0,0,0.06035665294924553,24.142661179698212,0)" xlink:href="#au"/></g><g id="N"><use transform="matrix(0.06035665294924553,0,0,0.06035665294924553,0,0)" xlink:href="#ax"/><use transform="matrix(0.06035665294924553,0,0,0.06035665294924553,10.864197530864196,0)" xlink:href="#aD"/><use transform="matrix(0.06035665294924553,0,0,0.06035665294924553,16.899862825788748,0)" xlink:href="#aq"/><use transform="matrix(0.06035665294924553,0,0,0.06035665294924553,28.971193415637856,0)" xlink:href="#aF"/><use transform="matrix(0.06035665294924553,0,0,0.06035665294924553,36.153635116598075,0)" xlink:href="#aD"/></g><g id="O"><use transform="matrix(0.06035665294924553,0,0,0.06035665294924553,0,0)" xlink:href="#ax"/><use transform="matrix(0.06035665294924553,0,0,0.06035665294924553,10.864197530864196,0)" xlink:href="#at"/><use transform="matrix(0.06035665294924553,0,0,0.06035665294924553,22.9355281207133,0)" xlink:href="#aF"/><use transform="matrix(0.06035665294924553,0,0,0.06035665294924553,30.11796982167352,0)" xlink:href="#aR"/><use transform="matrix(0.06035665294924553,0,0,0.06035665294924553,40.982167352537715,0)" xlink:href="#at"/><use transform="matrix(0.06035665294924553,0,0,0.06035665294924553,53.05349794238682,0)" xlink:href="#aF"/></g><g id="P"><use transform="matrix(0.06035665294924553,0,0,0.06035665294924553,0,0)" xlink:href="#aA"/><use transform="matrix(0.06035665294924553,0,0,0.06035665294924553,15.632373113854593,0)" xlink:href="#aq"/><use transform="matrix(0.06035665294924553,0,0,0.06035665294924553,27.7037037037037,0)" xlink:href="#aD"/><use transform="matrix(0.06035665294924553,0,0,0.06035665294924553,33.73936899862825,0)" xlink:href="#aq"/></g><path fill="#333" d="M115-194c55 1 70 41 70 98S169 2 115 4C84 4 66-9 55-30l1 105H24l-1-265h31l2 30c10-21 28-34 59-34zm-8 174c40 0 45-34 45-75s-6-73-45-74c-42 0-51 32-51 76 0 43 10 73 51 73" id="aT"/><g id="Q"><use transform="matrix(0.06035665294924553,0,0,0.06035665294924553,0,0)" xlink:href="#aC"/><use transform="matrix(0.06035665294924553,0,0,0.06035665294924553,18.046639231824415,0)" xlink:href="#aq"/><use transform="matrix(0.06035665294924553,0,0,0.06035665294924553,30.11796982167352,0)" xlink:href="#an"/><use transform="matrix(0.06035665294924553,0,0,0.06035665294924553,42.18930041152262,0)" xlink:href="#aK"/><use transform="matrix(0.06035665294924553,0,0,0.06035665294924553,46.95747599451302,0)" xlink:href="#aT"/><use transform="matrix(0.06035665294924553,0,0,0.06035665294924553,59.02880658436212,0)" xlink:href="#aB"/><use transform="matrix(0.06035665294924553,0,0,0.06035665294924553,71.10013717421123,0)" xlink:href="#aw"/><use transform="matrix(0.06035665294924553,0,0,0.06035665294924553,75.86831275720162,0)" xlink:href="#aq"/><use transform="matrix(0.06035665294924553,0,0,0.06035665294924553,87.93964334705073,0)" xlink:href="#aD"/><use transform="matrix(0.06035665294924553,0,0,0.06035665294924553,93.97530864197529,0)" xlink:href="#aK"/><use transform="matrix(0.06035665294924553,0,0,0.06035665294924553,98.74348422496568,0)" xlink:href="#am"/><use transform="matrix(0.06035665294924553,0,0,0.06035665294924553,110.8148148148148,0)" xlink:href="#an"/></g><path fill="#333" d="M205 0l-28-72H64L36 0H1l101-248h38L239 0h-34zm-38-99l-47-123c-12 45-31 82-46 123h93" id="aU"/><g id="R"><use transform="matrix(0.06035665294924553,0,0,0.06035665294924553,0,0)" xlink:href="#aU"/><use transform="matrix(0.06035665294924553,0,0,0.06035665294924553,14.485596707818928,0)" xlink:href="#aM"/><use transform="matrix(0.06035665294924553,0,0,0.06035665294924553,28.971193415637856,0)" xlink:href="#ay"/></g><g id="S"><use transform="matrix(0.06035665294924553,0,0,0.06035665294924553,0,0)" xlink:href="#aI"/><use transform="matrix(0.06035665294924553,0,0,0.06035665294924553,14.485596707818928,0)" xlink:href="#am"/><use transform="matrix(0.06035665294924553,0,0,0.06035665294924553,26.556927297668032,0)" xlink:href="#ar"/><use transform="matrix(0.06035665294924553,0,0,0.06035665294924553,37.42112482853223,0)" xlink:href="#as"/><use transform="matrix(0.06035665294924553,0,0,0.06035665294924553,48.285322359396424,0)" xlink:href="#at"/><use transform="matrix(0.06035665294924553,0,0,0.06035665294924553,60.35665294924553,0)" xlink:href="#aD"/><use transform="matrix(0.06035665294924553,0,0,0.06035665294924553,66.39231824417008,0)" xlink:href="#ax"/></g></defs></g></svg>